# xmcd
#
# Track frame offsets: 
#        150
#        22037
#        51231
#        68770
#        87337
#        115885
#        142371
#        165331
#        191719
#
# Disc length: 2884 seconds
#
# Revision: 1
# Processed by: cddbd v1.5.2PL0 Copyright (c) Steve Scherf et al.
# Submitted via: ExactAudioCopy v0.99pb4
#
DISCID=800b4209
DTITLE=Martial Solal - Solitude
DYEAR=2007
DGENRE=Jazz
TTITLE0=Darn the dream
TTITLE1=Caravan
TTITLE2=Our love is here to stay
TTITLE3=Chi va piano
TTITLE4=Medium
TTITLE5=Bluesine
TTITLE6=On a clear day
TTITLE7=In my solitude
TTITLE8=Darn the dream a.t.
EXTD=YEAR: 2007
EXTT0=
EXTT1=
EXTT2=
EXTT3=
EXTT4=
EXTT5=
EXTT6=
EXTT7=
EXTT8=
PLAYORDER=
